<?xml version="1.0" encoding="UTF-8" standalone="no"?>
<!-- Created with Inkscape (http://www.inkscape.org/) -->

<svg
   width="132.29279mm"
   height="93.718994mm"
   viewBox="0 0 132.29279 93.718994"
   version="1.1"
   id="svg5"
   inkscape:version="1.1.2 (b8e25be833, 2022-02-05)"
   sodipodi:docname="Coutts old.svg"
   xmlns:inkscape="http://www.inkscape.org/namespaces/inkscape"
   xmlns:sodipodi="http://sodipodi.sourceforge.net/DTD/sodipodi-0.dtd"
   xmlns="http://www.w3.org/2000/svg"
   xmlns:svg="http://www.w3.org/2000/svg">
  <sodipodi:namedview
     id="namedview7"
     pagecolor="#ffffff"
     bordercolor="#666666"
     borderopacity="1.0"
     inkscape:pageshadow="2"
     inkscape:pageopacity="0.0"
     inkscape:pagecheckerboard="0"
     inkscape:document-units="mm"
     showgrid="false"
     inkscape:zoom="0.64052329"
     inkscape:cx="392.64771"
     inkscape:cy="118.65298"
     inkscape:window-width="1920"
     inkscape:window-height="1017"
     inkscape:window-x="-8"
     inkscape:window-y="-8"
     inkscape:window-maximized="1"
     inkscape:current-layer="layer1" />
  <defs
     id="defs2" />
  <g
     inkscape:label="Layer 1"
     inkscape:groupmode="layer"
     id="layer1"
     transform="translate(-1.1846192,-116.71769)">
    <g
       transform="matrix(0.26458332,0,0,0.26458332,-35.211674,94.077299)"
       fill="#9e8d60"
       id="g872"
       style="fill:#000000;fill-opacity:1">
      <path
         d="m 472.16,174.02 c 0.31208,0.017 0.86488,0.064 1.6499,0.14443 0.86488,0.0878 1.4658,0.16029 1.8102,0.21636 l 1.6261,0.28037 0.41686,0.0566 0.42422,-2.7079 c -0.81673,-0.17614 -1.1294,-0.23222 -2.1064,-0.37608 -1.5304,-0.23222 -2.4276,-0.32851 -3.8294,-0.37665 l -0.40837,-0.017 -0.0396,2.7634 c 0.20843,0.006 0.35286,0.006 0.45708,0.017 z m -6.7208,0.36872 4.2213,-1.7382 -4.2213,-2.0905 -4.1573,2.0905 z m -10.213,0.006 1.826,-0.18408 c 0.42479,-0.0396 1.0257,-0.0804 1.8022,-0.12008 l 0.37665,-0.0226 -0.14386,-2.7793 c -0.91359,0.0396 -1.2659,0.064 -1.971,0.12801 -0.50465,0.0453 -1.2172,0.13593 -2.1387,0.2645 -1.1135,0.15179 -1.3537,0.19201 -2.1308,0.36023 l 0.36079,2.5873 c 0.68873,-0.10421 0.85695,-0.12007 2.0186,-0.23222 z m -0.52108,1.9784 c -3.0438,0.40043 -4.5096,1.0416 -4.5096,1.979 0,0.57659 0.60094,1.0892 1.7145,1.4658 1.0008,0.34436 2.0186,0.6168 3.0676,0.81673 2.5397,0.50466 6.4246,0.78502 10.87,0.78502 3.5728,0 6.4642,-0.19201 9.116,-0.60887 1.2976,-0.19993 2.5708,-0.4803 3.8044,-0.82466 1.2659,-0.36079 1.8985,-0.88131 1.8985,-1.5865 0,-0.70459 -0.60037,-1.2336 -1.7462,-1.5457 -1.2897,-0.35229 -2.6354,-0.59301 -4.0452,-0.71308 -2.1308,-0.19201 -6.1278,-0.33644 -9.3721,-0.33644 -4.2938,-0.006 -7.8904,0.18408 -10.798,0.56866 z m 29.839,-3.9087 -0.192,0.79294 -0.12801,0.46444 -3.7008,0.6168 3.2199,2.7714 c -0.0566,0.19257 -0.0878,0.34493 -0.11215,0.44065 -0.27243,1.2177 -0.31208,1.378 -0.55279,1.9144 -0.3523,0.80937 -0.64852,1.1537 -1.4098,1.6346 -0.83316,0.52051 -1.7785,0.93681 -2.8914,1.2812 -1.3457,0.40894 -2.82,0.72102 -4.3901,0.94531 -2.7396,0.37665 -6.3441,0.6168 -9.3562,0.6168 -3.0438,0 -6.2637,-0.23222 -8.9314,-0.64852 -1.5938,-0.24864 -2.9718,-0.56073 -4.125,-0.93737 -0.97759,-0.32058 -1.8906,-0.70516 -2.5153,-1.0574 -0.65702,-0.36816 -1.2336,-0.93738 -1.5219,-1.4981 -0.15236,-0.28829 -0.28037,-0.64058 -0.39251,-1.0569 -0.15236,-0.52108 -0.20843,-0.78502 -0.34437,-1.4981 l 3.3882,-2.8518 -3.9172,-0.75274 -0.12008,-0.38458 -0.18408,-0.91358 -0.10421,-0.36816 c 0.192,-0.0719 0.33643,-0.1365 0.43272,-0.16821 1.2653,-0.49673 3.3882,-1.0495 5.5427,-1.442 2.3636,-0.43272 5.119,-0.75274 8.523,-0.97703 2.1308,-0.14443 3.7812,-0.20843 5.4073,-0.20843 1.2653,0 2.6275,0.0396 4.0933,0.12008 3.1639,0.16822 5.1825,0.41686 8.2585,1.0252 1.3537,0.26451 2.5233,0.52901 3.5003,0.78502 1.2019,0.32058 1.6023,0.44858 2.6439,0.88923 l -0.12065,0.46501"
         id="path826"
         style="fill:#000000;fill-opacity:1" />
      <path
         d="m 410.43,308.5 c 60.142,0 108.9,-48.759 108.9,-108.9 0,-60.134 -48.759,-108.89 -108.9,-108.89 -60.142,0 -108.89,48.759 -108.89,108.89 0,60.142 48.751,108.9 108.89,108.9 z M 296.32,199.6 c 0,-62.977 51.05,-114.03 114.03,-114.03 62.985,0 114.04,51.05 114.04,114.03 0,62.978 -51.05,114.04 -114.04,114.04 -62.977,0 -114.03,-51.058 -114.03,-114.04"
         id="path828"
         style="fill:#000000;fill-opacity:1" />
      <path
         d="m 421.04,279.58 c 4.6382,3.6607 10.317,5.5912 16.421,5.5912 2.8116,0 5.4951,-0.41658 7.9623,-1.2256 5.4068,-1.7783 9.7006,-5.2468 12.825,-10.373 0.94474,-1.546 1.698,-3.108 2.2508,-4.662 0.60037,-1.6822 0.80088,-2.4832 1.1855,-4.7261 -1.2659,-0.0881 -1.7705,-0.15219 -2.892,-0.37648 -1.3135,-0.26434 -2.5391,-0.62484 -3.6764,-1.0734 -2.3794,-0.92917 -4.6863,-2.371 -6.7208,-4.2054 -2.5952,-2.3471 -4.7424,-5.2949 -6.4484,-8.8595 -0.36872,-0.78501 -0.7448,-1.6341 -1.1135,-2.5553 -0.40044,-1.0013 -0.52052,-1.3457 -0.80088,-2.2669 -1.7224,1.0814 -2.3313,1.6341 -3.3564,3.0439 -0.7448,1.0174 -1.314,2.1548 -1.6901,3.3644 -0.40044,1.2817 -0.6168,2.9238 -0.6168,4.582 0,1.9785 0.28036,3.7809 0.84109,5.3268 0.9453,2.6194 2.8994,5.1267 5.1904,6.6567 1.634,1.0894 3.6691,1.8344 5.7273,2.0987 0.67287,0.0881 1.514,0.13616 2.355,0.13616 0.58508,0 0.84958,-0.008 1.5542,-0.0641 -0.0799,0.11215 -0.15236,0.20022 -0.192,0.24831 -0.38458,0.45657 -0.99345,0.87315 -1.8668,1.2816 -0.52844,0.24836 -1.041,0.44059 -1.5377,0.58479 -0.99345,0.2964 -2.1948,0.44858 -3.5003,0.44858 -0.44858,0 -0.90566,-0.0238 -1.3622,-0.0561 -1.9303,-0.16023 -3.404,-0.59278 -5.0703,-1.514 -2.171,-1.1856 -3.7252,-2.6995 -4.9106,-4.7742 -1.3055,-2.2909 -2.1228,-5.383 -2.1228,-8.0824 0,-3.2041 1.1135,-6.7127 3.0041,-9.5163 0.8173,-1.2176 1.7864,-2.299 2.8597,-3.2202 1.2495,-1.0654 1.9223,-1.4979 4.0134,-2.6034 -0.0804,-0.2884 -0.14443,-0.50465 -0.18464,-0.64885 -0.26394,-1.0414 -0.79295,-3.9091 -1.1294,-6.152 l -0.57658,-3.893 -0.69723,-3.5807 -0.80087,-4.0292 c -0.40044,-2.0026 -0.80881,-3.693 -1.2336,-5.0704 -1.0252,-3.3326 -2.8597,-7.2492 -4.6942,-10.029 -1.4097,-2.1228 -3.212,-4.2054 -4.9905,-5.7755 -0.59245,-0.52051 -0.90509,-0.76916 -1.7218,-1.3616 0.52844,0.0227 0.76066,0.0227 1.0733,0.0227 0.40044,0 0.96117,-0.006 1.6822,-0.0396 2.8676,-0.19994 4.0854,-0.32001 5.7834,-0.56073 l 3.3881,-0.4803 c 1.7468,-0.24015 4.0933,-0.40044 5.9522,-0.40044 1.2336,0 2.4672,0.064 3.9409,0.21636 1.3378,0.13594 2.6354,0.32001 3.8849,0.56073 1.7541,0.33644 2.355,0.52051 3.7648,1.1611 -0.0878,-0.37608 -0.16029,-0.64852 -0.20787,-0.83316 -0.54486,-1.954 -1.5383,-3.7166 -2.9401,-5.2306 -0.73687,-0.79295 -1.6018,-1.5219 -2.555,-2.171 -2.7,-1.8102 -5.6554,-2.6751 -9.1563,-2.6751 -4.4858,0 -9.4038,1.3293 -13.521,3.6526 -2.1948,1.2415 -4.4297,2.7476 -6.6964,4.5096 -1.5865,1.2336 -2.1308,1.7303 -3.7008,3.3406 l 0.53637,0.65701 c 2.4672,3.0358 4.5181,5.9437 6.1283,8.715 4.7418,8.1464 7.1127,17.078 7.1127,26.779 0,8.0824 -1.6578,15.74 -4.9502,22.91 -1.041,2.2589 -2.299,4.5739 -3.7569,6.921 -1.3299,2.1227 -1.8906,2.9318 -3.4442,4.9103 2.5391,2.9398 3.4125,3.805 5.3988,5.367 z m -68.329,-19.313 c 0,-0.51264 0.0396,-1.1294 0.10421,-1.8584 0.25658,-2.7716 0.72102,-4.5499 1.7145,-6.6406 0.36023,-0.76101 0.76067,-1.49 1.2092,-2.1868 0.50465,-0.80104 1.3457,-1.9465 2.4593,-3.3723 0.36079,-0.45662 0.62473,-0.82512 0.79295,-1.1055 0.50465,-0.82506 0.86544,-2.1628 0.86544,-3.1881 0,-3.5086 -3.1084,-6.3602 -6.9292,-6.3602 -5.4311,0 -9.5964,5.5031 -9.5964,12.664 0,3.3003 0.84902,5.9277 2.6994,8.3148 0.77708,0.99328 1.7145,1.8984 2.7798,2.6834 1.5457,1.1375 2.1948,1.4579 3.9251,1.9065 -0.017,-0.42451 -0.0227,-0.62479 -0.0227,-0.85712 z m 48.503,8.2828 c -1.3214,-2.1228 -2.4508,-4.1814 -3.3723,-6.168 -3.2041,-6.8809 -4.9021,-14.883 -4.9021,-22.998 0,-9.6044 2.2831,-18.167 7.1133,-26.691 2.3069,-4.061 3.6045,-5.7353 6.9049,-9.4842 -1.6822,-1.8266 -2.3794,-2.5312 -5.1745,-4.6382 -2.107,-1.4658 -3.5649,-2.5074 -5.6798,-3.5643 -4.0372,-2.0107 -8.5548,-3.2686 -13.073,-3.2686 -1.6261,0 -3.4924,0.28829 -4.9423,0.69722 -2.6354,0.73687 -5.1825,2.2746 -6.9932,4.2292 -0.77709,0.82523 -1.4256,1.7462 -1.9461,2.7158 -0.60887,1.1452 -0.82524,1.7541 -1.2098,3.3479 1.4177,-0.64059 2.0107,-0.82467 3.7648,-1.1611 1.2495,-0.24072 2.5476,-0.4248 3.8849,-0.56073 1.4743,-0.15236 2.7079,-0.21636 3.9494,-0.21636 1.8504,0 4.1975,0.16029 5.9437,0.40044 l 3.3882,0.4803 c 0.78501,0.11214 1.7382,0.22429 2.8518,0.33643 1.9308,0.18465 3.2443,0.27244 4.4456,0.27244 0.37665,0 0.64115,-0.006 1.2421,-0.034 -0.24865,0.17615 -0.43272,0.32001 -0.56073,0.40837 -1.194,0.91302 -2.3953,2.0424 -3.5728,3.3802 -2.0186,2.2831 -3.5326,4.6144 -5.0386,7.7624 -1.7145,3.5564 -2.5873,6.2558 -3.4686,10.686 l -0.80088,4.0292 -0.69722,3.5807 -0.57659,3.893 c -0.16029,1.0974 -0.38458,2.4111 -0.66494,3.9411 -0.27243,1.4579 -0.34437,1.8023 -0.64852,2.8597 2.0906,1.1054 2.7634,1.538 4.0129,2.6034 1.0818,0.92118 2.043,2.0026 2.8597,3.2202 1.8906,2.8036 3.0041,6.3122 3.0041,9.5163 0,1.4499 -0.22429,2.9639 -0.65701,4.5098 -0.7448,2.6435 -1.9625,4.7742 -3.6289,6.3762 -1.4256,1.3538 -3.4844,2.5393 -5.3507,3.06 -1.0977,0.31242 -2.4593,0.48064 -3.8288,0.48064 -0.28037,0 -0.56866,-0.008 -0.84902,-0.0238 -1.6346,-0.0881 -2.8359,-0.37648 -4.1896,-1.0093 -0.37665,-0.18419 -0.73687,-0.37648 -1.0654,-0.59272 -0.45651,-0.2964 -0.64115,-0.4726 -0.99345,-0.93721 0.70516,0.0561 0.9691,0.0641 1.5621,0.0641 1.8985,0 3.3406,-0.20826 4.8624,-0.69689 2.1064,-0.68091 3.7965,-1.7382 5.319,-3.3083 2.683,-2.7796 3.9251,-6.0078 3.9251,-10.213 0,-1.6582 -0.22429,-3.3003 -0.6168,-4.582 -0.36872,-1.2095 -0.93738,-2.347 -1.6907,-3.3644 -1.0252,-1.4098 -1.634,-1.9625 -3.3559,-3.0439 -0.28036,0.92117 -0.401,1.2656 -0.80144,2.2669 -0.36815,0.92117 -0.73687,1.7703 -1.1135,2.5553 -1.698,3.5646 -3.8526,6.5124 -6.4484,8.8595 -2.0345,1.8344 -4.3334,3.2762 -6.7202,4.2054 -1.1379,0.44858 -2.3715,0.80909 -3.677,1.0734 -1.1214,0.22429 -1.6182,0.28834 -2.892,0.37647 0.0453,0.28037 0.0884,0.48863 0.10422,0.63283 0.60094,3.2762 1.6102,5.9277 3.3326,8.7553 1.2257,2.0106 2.6275,3.7649 4.1652,5.2228 4.3895,4.1574 10.277,6.4163 16.686,6.4163 6.4959,0 11.222,-1.3217 17.559,-6.5365 2.8756,-2.363 3.1638,-3.076 4.4297,-4.4377 -1.8985,-2.299 -2.5793,-3.2362 -4.1097,-5.6874 z M 372,242.8848 c -0.71252,0 -1.5055,0.0801 -2.363,0.25629 -2.1545,0.43261 -3.9489,1.2416 -5.4549,2.4672 -2.107,1.7062 -3.8928,4.5339 -4.8545,7.6819 -0.5443,1.8024 -0.84109,3.7809 -0.84109,5.6874 0,1.1375 0.051,1.6181 0.24865,2.8517 1.4738,-0.23228 2.0107,-0.35247 2.9316,-0.65684 1.0093,-0.33644 1.9546,-0.80105 2.7878,-1.3778 1.57,-1.0814 3.148,-2.8517 4.4858,-5.0305 1.1294,-1.8344 2.2746,-4.3256 2.9396,-6.3602 0.14443,-0.44858 0.40893,-1.3538 0.77708,-2.7155 0.40837,-1.514 0.46444,-1.7303 0.62473,-2.7235 -0.62473,-0.0641 -0.89716,-0.0801 -1.2817,-0.0801 z m 99.929,16.333 c 1.0654,-0.78502 1.9948,-1.6902 2.7719,-2.6834 1.8504,-2.3871 2.7073,-5.0145 2.7073,-8.3148 0,-7.1613 -4.1732,-12.664 -9.6043,-12.664 -3.8209,0 -6.9292,2.8517 -6.9292,6.3602 0,0.66482 0.12857,1.3618 0.36872,2.0827 0.28037,0.81707 0.51259,1.2096 1.2897,2.2109 0.38458,0.48863 0.76067,0.97725 1.1215,1.4659 1.2415,1.6582 1.8906,2.6995 2.555,4.0933 0.45708,0.96926 0.8173,1.9305 1.0739,2.8677 0.40043,1.4659 0.73687,4.0212 0.73687,5.6313 0,0.23233 -0.006,0.43261 -0.0227,0.85712 1.7303,-0.44858 2.3794,-0.76899 3.933,-1.9065 z m -66.438,-41.085 c -1.57,5.471 -2.3313,11.094 -2.3313,17.182 0,9.2119 1.7864,18.464 5.0788,26.282 0.64852,1.546 1.041,2.387 2.0906,4.4617 0.99345,-1.8183 1.2976,-2.4672 2.1228,-4.5899 3.6289,-9.3481 5.1264,-16.918 5.1264,-25.954 0,-6.216 -0.76859,-11.911 -2.3386,-17.382 -1.2659,-4.3737 -2.163,-6.296 -4.9106,-10.445 -2.6592,3.9891 -3.5088,5.8151 -4.8381,10.445 z m 42.583,27.556 c 0.85695,3.124 1.0812,3.7809 1.9784,5.7594 1.2659,2.7876 2.6677,4.9744 4.2377,6.6166 1.5378,1.594 3.2924,2.7476 4.7741,3.108 l 2.1789,0.53671 c 0.37665,0.0881 0.60887,0.13616 0.69666,0.13616 0.0725,0 0.1365,-0.25635 0.14443,-0.58474 l 0.12801,-3.3884 c 0,-1.3617 -0.27244,-2.9077 -0.80881,-4.5819 -1.0654,-3.3083 -2.7476,-5.9757 -4.8545,-7.6819 -0.73687,-0.59273 -1.5457,-1.0974 -2.419,-1.4979 -1.6182,-0.74497 -3.7489,-1.2256 -5.3988,-1.2256 -0.38458,0 -0.65701,0.0159 -1.2738,0.0801 0.16029,0.99327 0.20843,1.2096 0.6168,2.7235 z m -44.466,38.306 c -5.4951,2.8116 -12.56,4.4377 -18.776,4.4457 -9.1636,0.0159 -16.902,-2.7155 -22.965,-8.0584 -3.8209,-3.3644 -6.1601,-6.937 -7.7703,-11.879 -0.66494,-2.0266 -0.84902,-2.8116 -1.1373,-4.8623 -0.2645,-0.0402 -0.46444,-0.0721 -0.60094,-0.0881 -2.4593,-0.40854 -5.4549,-1.8104 -7.5375,-3.5245 -1.0014,-0.82512 -1.9705,-1.8504 -2.884,-3.06 -2.6513,-3.5005 -3.9007,-7.0972 -3.9007,-11.206 0,-4.4057 1.4177,-7.9704 4.3737,-11.006 0.88923,-0.9052 1.8181,-1.6501 2.7793,-2.2429 2.0028,-1.2176 4.4139,-1.8825 6.8171,-1.8825 2.9956,0 5.383,0.97725 7.4497,3.0519 0.92888,0.92922 1.6261,1.9465 2.0503,2.9879 0.40893,0.98529 0.60093,2.0186 0.60093,3.2202 0,0.64886 -0.064,1.3298 -0.17614,1.9946 -0.15236,0.88917 -0.24865,1.1936 -0.60887,1.9465 1.3537,-0.96122 1.9303,-1.2736 3.4046,-1.8424 2.2106,-0.85712 4.662,-1.2817 7.3455,-1.2817 0.49672,0 0.81673,0.008 1.6097,0.0481 l 0.10422,-0.65685 0.67287,-3.1081 1.0733,-5.2148 c 0.74537,-3.6287 2.1868,-8.3067 3.4527,-11.238 1.57,-3.6289 3.6209,-6.8811 6.3521,-10.085 1.6584,-1.9302 3.5326,-3.7971 5.0307,-4.9905 0.84902,-0.6808 1.2257,-0.92944 2.2191,-1.4902 -0.3285,-0.064 -0.53693,-0.10365 -0.62529,-0.11215 -0.4163,-0.0453 -1.2013,-0.0878 -2.355,-0.12007 l -4.918,-0.13593 -0.59301,-0.006 c -2.299,0 -5.8316,0.45651 -8.4426,1.0892 -1.3061,0.31265 -2.5397,0.70516 -3.6929,1.1617 -1.8107,0.72101 -2.5074,1.1056 -4.1573,2.2667 0.38401,1.2976 0.56866,1.7382 1.049,2.4276 0.35286,0.52844 0.82523,0.98495 1.386,1.3616 0.93738,0.6168 2.163,0.97702 3.3644,0.97702 0.89716,0 1.7705,-0.20786 2.6031,-0.6168 0.72894,-0.35229 1.3622,-0.83316 1.8589,-1.4097 0.55223,-0.64059 0.77652,-1.0495 1.1452,-2.1228 0.12007,0.465 0.16029,0.67287 0.16029,1.0416 0,1.0331 -0.46444,2.5312 -1.0733,3.4606 -0.58508,0.88867 -1.7224,1.89 -2.7719,2.4428 -1.0574,0.54487 -2.4428,0.87337 -3.7246,0.87337 -0.88924,0 -1.7943,-0.16028 -2.6994,-0.47293 -1.0495,-0.37608 -1.9948,-0.92095 -2.7719,-1.6097 -0.97702,-0.87337 -1.3378,-1.386 -1.9705,-2.8036 -0.89716,1.2013 -1.1855,1.7139 -1.7382,3.1316 -0.7448,1.9065 -1.0892,3.741 -1.0892,5.7596 0,1.9946 0.34437,3.9652 0.97702,5.6153 0.4248,1.0894 1.0337,2.2029 1.8102,3.3083 0.99344,1.4018 1.5383,2.0106 3.0761,3.4044 -0.40044,-0.17626 -0.69666,-0.31242 -0.88923,-0.40853 -1.7541,-0.86517 -3.5405,-2.1949 -4.8302,-3.5967 -0.73687,-0.80904 -1.4097,-1.7302 -1.9943,-2.7556 -1.5219,-2.6274 -2.291,-5.5271 -2.291,-8.5952 0,-3.2839 0.83316,-5.9839 2.7073,-8.723 0.92945,-1.3542 1.3939,-1.8906 2.7238,-3.1242 0.017,-0.47294 0.034,-0.82523 0.0453,-1.0654 0.19994,-3.0358 1.2732,-5.5914 3.4363,-8.1707 2.2831,-2.7232 4.7979,-4.4218 8.4511,-5.695 3.0115,-1.0495 5.9596,-1.5462 9.252,-1.5462 4.6059,0 9.6841,0.92095 14.154,2.7317 1.9705,0.80088 3.5966,1.578 5.6395,2.8036 2.9158,1.7382 4.2134,2.7957 6.5282,4.9661 l 1.1214,-0.92095 c 4.1171,-3.1163 6.6324,-5.0148 11.199,-6.8171 4.9582,-1.9546 9.4598,-2.7634 14.058,-2.7634 1.322,0 2.5793,0.0799 3.7733,0.23222 3.7246,0.4888 7.5619,1.8345 10.157,3.5649 2.7073,1.8102 5.1745,4.7339 6.2881,7.4656 0.73687,1.7943 0.91302,2.7555 0.98552,5.2148 1.3293,1.2336 1.8022,1.77 2.7232,3.1242 1.8742,2.7391 2.7074,5.439 2.7074,8.723 0,1.5859 -0.20787,3.148 -0.62473,4.6301 -0.68873,2.4992 -2.0107,4.9103 -3.6606,6.7207 -0.7448,0.81707 -1.634,1.5861 -2.6275,2.2829 -1.0892,0.76905 -1.642,1.0734 -3.0919,1.7223 1.5378,-1.3938 2.0826,-2.0026 3.0761,-3.4044 0.78502,-1.1054 1.3939,-2.2188 1.8102,-3.3083 0.63266,-1.6501 0.97759,-3.6206 0.97759,-5.6153 0,-2.0186 -0.34493,-3.8532 -1.0897,-5.7596 -0.5528,-1.4177 -0.84109,-1.9303 -1.7383,-3.1316 -0.63265,1.4177 -0.99344,1.9303 -1.9705,2.8036 -1.45,1.2897 -3.5326,2.0826 -5.4713,2.0826 -0.56866,0 -1.1532,-0.064 -1.7462,-0.18464 -1.3775,-0.28829 -2.4111,-0.8088 -3.4924,-1.7462 -1.0574,-0.91302 -1.5859,-1.7139 -2.0028,-3.02 -0.19993,-0.62473 -0.32001,-1.3293 -0.32001,-1.826 0,-0.36872 0.034,-0.57659 0.15179,-1.0416 0.37665,1.0733 0.59301,1.4822 1.1458,2.1228 1.0892,1.258 2.7793,2.0265 4.4694,2.0265 1.194,0 2.4196,-0.36022 3.3564,-0.97702 0.56073,-0.37665 1.0337,-0.83316 1.3939,-1.3616 0.47293,-0.6893 0.65701,-1.13 1.0416,-2.4276 -1.6425,-1.1611 -2.3471,-1.5457 -4.1494,-2.2667 -1.1537,-0.45651 -2.3953,-0.84902 -3.7008,-1.1617 -2.6116,-0.63266 -6.1442,-1.0892 -8.4432,-1.0892 l -0.59245,0.006 -4.9185,0.13593 c -1.1537,0.034 -1.9388,0.0725 -2.363,0.12007 -0.0804,0.0113 -0.28829,0.0453 -0.61679,0.11215 1.0014,0.56073 1.3695,0.80937 2.2185,1.4902 1.4981,1.1934 3.3808,3.0602 5.0307,4.9905 2.7317,3.2041 4.782,6.4563 6.3521,10.085 1.2659,2.9317 2.7079,7.6097 3.4527,11.238 l 1.0812,5.2148 0.66494,3.1081 0.11214,0.65685 c 0.78502,-0.0402 1.1056,-0.0481 1.6023,-0.0481 2.6915,0 5.1343,0.42457 7.3455,1.2817 1.4738,0.56871 2.0503,0.88113 3.404,1.8424 -0.36023,-0.75296 -0.44859,-1.0573 -0.60887,-1.9465 -0.12008,-0.66483 -0.17615,-1.3457 -0.17615,-1.9946 0,-1.2015 0.19257,-2.2349 0.60094,-3.2202 0.42479,-1.0414 1.1294,-2.0587 2.0503,-2.9879 2.0668,-2.0747 4.4541,-3.0519 7.4577,-3.0519 2.4032,0 4.8064,0.66489 6.8091,1.8825 0.96116,0.59278 1.8985,1.3377 2.7793,2.2429 2.956,3.0359 4.3737,6.6005 4.3737,11.006 0,1.9224 -0.2883,3.7728 -0.84109,5.4951 -1.041,3.2042 -3.3961,6.6807 -5.9437,8.7714 -1.105,0.91313 -2.427,1.7142 -3.9087,2.3791 -1.7462,0.78502 -2.4355,0.98529 -4.2298,1.2336 -0.0396,0.30438 -0.0719,0.53671 -0.0957,0.6889 -0.52108,3.3163 -2.0028,7.3375 -3.7569,10.165 -2.6439,4.2776 -7.0816,8.1546 -12.112,10.574 -4.6302,2.2269 -9.9974,3.3723 -15.764,3.3723 -6.3685,0 -12.432,-1.3777 -18.136,-4.1173 -3.4204,-1.6421 -4.6778,-2.4592 -7.5777,-4.9264 -2.5471,1.9866 -3.3321,2.8677 -6.7208,4.598"
         id="path830"
         style="fill:#000000;fill-opacity:1" />
      <path
         d="m 469.35,131.17 -3.5326,2.7396 3.5326,2.7798 v -5.5195"
         id="path832"
         style="fill:#000000;fill-opacity:1" />
      <path
         d="m 468.22,137.78 -2.9078,-3.1724 -3.1638,3.1724 h 6.0717"
         id="path834"
         style="fill:#000000;fill-opacity:1" />
      <path
         d="m 461.12,136.69 3.7648,-2.7878 -3.7648,-2.7317 v 5.5195"
         id="path836"
         style="fill:#000000;fill-opacity:1" />
      <path
         d="m 462.23,129.77 3.084,3.6691 2.9078,-3.6691 H 462.23"
         id="path838"
         style="fill:#000000;fill-opacity:1" />
      <path
         d="m 468.23,157.37 0.0396,-0.66438 c 0.16029,-2.6598 0.22429,-3.5807 0.3523,-4.9508 0.0804,-0.85695 0.16822,-1.6901 0.2645,-2.4989 0.16029,-1.258 0.23222,-1.7382 0.47294,-2.9883 -0.31265,0.0884 -0.54487,0.16029 -0.69723,0.2005 -1.0733,0.2883 -1.9546,0.40044 -3.2364,0.40044 -0.76859,0 -1.4579,-0.0396 -2.0662,-0.12007 -0.74537,-0.0963 -1.1056,-0.18408 -1.979,-0.45651 l 0.0884,0.69666 0.29622,2.1948 c 0.064,0.43272 0.16822,1.378 0.32058,2.8359 0.13593,1.3135 0.22429,2.2106 0.24808,2.6915 l 0.12857,2.1308 0.0396,0.52845 h 5.7273 z m -2.9237,5.7279 3.3808,-4.534 h -6.7848 z m -0.84109,0.29622 -3.933,-3.3564 v 6.168 z m 1.7943,0.034 3.805,2.8201 v -6.1363 z m 17.535,-2.9956 c 0.27244,-0.80881 0.72895,-2.0509 1.5219,-4.1573 0.98552,-2.6513 1.258,-3.7648 1.258,-5.1185 0,-1.1135 -0.2005,-1.8906 -0.70515,-2.7 -1.0172,-1.634 -3.0041,-2.5793 -5.3909,-2.5793 -1.2415,0 -2.6354,0.22429 -5.1745,0.82523 -0.62529,0.15236 -1.2897,0.31265 -1.9948,0.48879 -1.2659,0.31208 -1.6182,0.40837 -2.6116,0.69666 l -0.0396,0.40044 -0.17614,1.4182 c -0.0227,0.14386 -0.0646,0.60887 -0.1365,1.3939 -0.006,0.15179 -0.034,0.37608 -0.064,0.67287 0.26451,-0.10422 0.4248,-0.16822 0.49673,-0.19258 1.442,-0.50465 3.7648,-0.86487 5.5433,-0.86487 0.69666,0 1.4097,0.0799 2.1228,0.24015 1.6018,0.35229 2.9475,1.1056 3.8928,2.163 0.52052,0.58451 0.9051,1.2415 1.1215,1.9382 0.24015,0.77708 0.36022,1.6901 0.36022,2.8036 0,0.29622 -0.006,0.59301 -0.0227,0.88923 -0.051,0.73687 -0.11214,1.2415 -0.31264,2.6116 0.1365,-0.40893 0.24071,-0.72101 0.31264,-0.92944 z m -36.776,0.10421 c -0.13593,-0.89716 -0.22429,-1.9869 -0.22429,-2.8756 0,-0.35286 0.017,-0.67287 0.0453,-0.96173 0.16029,-1.2574 0.7448,-2.7311 1.4341,-3.5802 0.38458,-0.46501 0.88923,-0.88923 1.4975,-1.258 1.3061,-0.78502 2.7238,-1.1373 4.5504,-1.1373 0.95324,0 2.1868,0.12007 3.3321,0.3285 1.1696,0.20787 1.6261,0.32851 2.7634,0.70459 l -0.0397,-0.44065 c -0.0453,-0.53637 -0.0957,-1.041 -0.15179,-1.5298 -0.0883,-0.8088 -0.12007,-1.0892 -0.24015,-1.8504 -0.15236,-0.034 -0.2645,-0.064 -0.33643,-0.0799 -0.11215,-0.034 -0.82523,-0.21636 -2.1472,-0.57715 -0.36022,-0.0957 -1.2415,-0.32001 -2.6513,-0.6808 -2.4672,-0.6168 -3.3083,-0.75273 -4.6302,-0.75273 -1.0812,0 -2.1223,0.19994 -3.0517,0.60094 -1.8583,0.78502 -3.0681,2.5708 -3.0681,4.5498 0,1.2172 0.29679,2.6994 0.92152,4.662 0.35229,1.0892 0.61679,1.8022 1.8425,4.9423 l 0.29622,0.76122 c -0.0719,-0.36872 -0.12007,-0.64908 -0.14442,-0.82523 z m -2.291,6.9049 c -0.21579,-0.73687 -0.59244,-1.8583 -1.113,-3.3802 -0.39251,-1.1294 -0.69723,-1.9705 -0.90566,-2.5074 l -1.3616,-3.5326 c -0.49673,-1.2976 -0.8813,-2.4191 -1.1373,-3.3564 -0.38458,-1.3695 -0.57659,-2.5714 -0.57659,-3.5405 0,-0.96909 0.19994,-2.1789 0.50466,-3.0517 0.47236,-1.3378 1.5536,-2.9322 2.6269,-3.8611 1.0739,-0.93737 2.892,-1.8266 4.4779,-2.1948 0.83316,-0.19257 1.7864,-0.28886 2.8518,-0.28886 0.84109,0 1.698,0.0646 2.5635,0.18465 1.4097,0.19993 3.741,0.75273 5.8474,1.3939 0.60094,0.18408 1.0014,0.29623 1.1934,0.34437 0.37665,0.0957 0.62473,0.14386 1.2976,0.27243 -0.10365,-0.57715 -0.12801,-0.78501 -0.12801,-1.1458 0,-0.12801 0.006,-0.25601 0.017,-0.37665 0.0646,-0.73688 0.44065,-1.4256 1.0093,-1.8583 0.26451,-0.19993 0.56923,-0.37608 0.90566,-0.51258 0.7448,-0.32058 1.2976,-0.42423 2.2265,-0.42423 l 0.35286,0.006 c 1.113,0.034 1.7382,0.15179 2.5233,0.47236 0.84902,0.34437 1.3695,0.79295 1.7218,1.4658 0.21636,0.40894 0.33644,0.87338 0.33644,1.322 0,0.42422 -0.0566,0.63265 -0.27243,1.1214 0.59301,-0.0963 0.71308,-0.12801 1.6261,-0.42479 0.94531,-0.30416 2.5074,-0.75274 3.3728,-0.97703 2.1143,-0.529 4.2451,-0.84109 5.7755,-0.84109 0.94474,0 1.8821,0.0963 2.8195,0.29623 1.8181,0.40043 3.3564,1.1214 4.598,2.171 0.76066,0.64852 1.4097,1.4177 1.9144,2.2746 0.76123,1.3061 1.2013,2.9078 1.2013,4.3578 0,1.1373 -0.18408,2.4032 -0.56073,3.7648 -0.51258,1.8985 -0.64059,2.2593 -2.2826,6.5684 -0.35286,0.92152 -0.74537,1.979 -1.1855,3.1882 -0.65701,1.8108 -0.82523,2.2752 -1.2738,3.677 -0.99344,0.28036 -1.4018,0.33643 -2.2673,0.33643 -1.634,0 -3.2199,-0.50465 -4.3974,-1.3939 -0.32057,-0.24808 -0.6168,-0.52845 -0.8813,-0.82523 -0.40837,-0.47237 -0.52844,-0.68873 -0.72101,-1.2817 0.67287,-0.4163 0.98551,-0.56073 1.6425,-0.7686 0.4803,-0.15235 1.0014,-0.28036 1.5457,-0.3925 0.65702,-0.12857 0.92945,-0.16822 1.6505,-0.24072 -0.16822,-0.6168 -0.29679,-0.82466 -0.77709,-1.2415 -0.57659,-0.48822 -1.322,-0.76066 -2.0747,-0.76066 -0.2005,0 -0.46444,0.017 -0.80087,0.0453 0.0799,-0.28886 0.14386,-0.49672 0.16821,-0.64115 0.11215,-0.50465 0.18408,-1.1532 0.18408,-1.7541 0,-0.56073 -0.0963,-1.1214 -0.27243,-1.7145 -0.23222,-0.76859 -0.32058,-0.93681 -0.73688,-1.4177 -0.529,0.4248 -0.66494,0.58452 -1.0654,1.3458 -0.57658,1.0654 -0.84901,2.0345 -0.84901,3.0438 0,0.24864 0.017,0.43272 0.064,0.85751 -0.47294,-0.1365 -0.66494,-0.16029 -1.0093,-0.16029 -0.67287,0 -1.3299,0.12008 -1.8345,0.34437 -0.41629,0.18407 -0.66494,0.40044 -1.0971,0.96116 0.56865,0.16822 0.76066,0.24015 1.3695,0.52844 0.51258,0.24072 0.99345,0.49673 1.4658,0.76916 0.66495,0.38458 0.92152,0.57659 1.514,1.1135 -0.34437,0.62473 -0.4888,0.77709 -1.2336,1.2738 -1.1855,0.79295 -2.4349,1.1775 -3.7971,1.1775 -0.70459,0 -1.4256,-0.10422 -2.1308,-0.32058 -1.4817,-0.44858 -2.2344,-0.96116 -3.5886,-2.4349 l -0.45651,-0.48879 c -0.6168,0.91302 -0.91302,1.2336 -1.6578,1.8102 -1.3061,1.0014 -2.6116,1.4262 -4.3578,1.4262 -1.45,0 -2.5714,-0.28886 -3.6045,-0.92152 -0.7533,-0.47237 -1.0172,-0.73687 -1.4822,-1.5378 0.52901,-0.60094 0.76915,-0.82523 1.2817,-1.1696 0.33643,-0.22429 0.72894,-0.44065 1.1696,-0.64115 0.60094,-0.25601 0.93738,-0.37609 1.8023,-0.6168 -0.4163,-0.55223 -0.62473,-0.72895 -1.1373,-0.98496 -0.52051,-0.25657 -1.0654,-0.38457 -1.6102,-0.38457 -0.38458,0 -0.60887,0.0396 -1.1373,0.192 0.10421,-0.42422 0.128,-0.6168 0.128,-0.88866 0,-0.45708 -0.10421,-1.0495 -0.31208,-1.7468 -0.15236,-0.49616 -0.32058,-0.92095 -0.49672,-1.2574 -0.30472,-0.56072 -0.49673,-0.8088 -1.0654,-1.3695 -0.4248,0.53637 -0.54487,0.76066 -0.76916,1.4177 -0.26451,0.73687 -0.40837,1.5298 -0.40837,2.1625 0,0.1365 0.006,0.27244 0.017,0.40894 0.051,0.42422 0.0963,0.59244 0.4248,1.634 -0.34437,-0.0566 -0.50466,-0.0719 -0.69723,-0.0719 -0.69666,0 -1.4335,0.26394 -2.0107,0.71252 -0.44009,0.34436 -0.60831,0.58508 -0.89717,1.2336 0.65702,0.0226 0.89717,0.0566 1.5865,0.20843 0.53637,0.11214 1.041,0.25657 1.4975,0.4163 0.71308,0.24071 1.0178,0.37664 1.7467,0.79351 -0.53693,1.0812 -0.79351,1.4579 -1.4018,2.0022 -1.0654,0.96966 -2.8682,1.5542 -4.7985,1.5542 -0.96909,0 -1.2976,-0.0566 -2.2191,-0.40044 -0.0719,-0.24864 -0.12801,-0.43272 -0.16822,-0.55279"
         id="path840"
         style="fill:#000000;fill-opacity:1" />
      <path
         d="m 359.38,131.11 -3.5246,2.7396 3.5246,2.7793 V 131.11"
         id="path842"
         style="fill:#000000;fill-opacity:1" />
      <path
         d="m 358.24,137.72 -2.9078,-3.1724 -3.1639,3.1724 h 6.0717"
         id="path844"
         style="fill:#000000;fill-opacity:1" />
      <path
         d="m 351.14,136.63 3.7654,-2.7878 -3.7654,-2.7317 v 5.5195"
         id="path846"
         style="fill:#000000;fill-opacity:1" />
      <path
         d="m 352.26,129.71 3.084,3.6691 2.9078,-3.6691 H 352.26"
         id="path848"
         style="fill:#000000;fill-opacity:1" />
      <path
         d="m 358.26,157.31 0.0396,-0.66494 c 0.16029,-2.6592 0.22429,-3.5886 0.3523,-4.9502 0.0725,-0.85694 0.16821,-1.6901 0.2645,-2.4989 0.16029,-1.258 0.23222,-1.7382 0.47237,-2.9883 -0.31208,0.0884 -0.5443,0.16029 -0.70459,0.2005 -1.0733,0.28829 -1.9467,0.40044 -3.2284,0.40044 -0.76859,0 -1.4579,-0.0396 -2.0668,-0.12008 -0.7448,-0.0963 -1.105,-0.18407 -1.9784,-0.45651 l 0.0884,0.69666 0.29622,2.1948 c 0.064,0.44066 0.16822,1.378 0.32058,2.8359 0.13593,1.3135 0.22429,2.2106 0.24807,2.6915 l 0.12801,2.1308 0.0396,0.52844 h 5.7273 z m -2.9237,5.7273 3.3802,-4.5255 h -6.7763 z m -0.84109,0.29679 -3.933,-3.3564 v 6.1759 z m 1.7943,0.034 3.805,2.8201 v -6.1363 z m 17.535,-2.9956 c 0.27243,-0.80938 0.72894,-2.0509 1.514,-4.1573 0.99345,-2.6518 1.2653,-3.7648 1.2653,-5.119 0,-1.113 -0.19994,-1.89 -0.70459,-2.6994 -1.0252,-1.634 -3.0041,-2.5793 -5.3909,-2.5793 -1.2415,0 -2.6354,0.22429 -5.1751,0.82523 -0.62473,0.15235 -1.2976,0.31264 -1.9943,0.48879 -1.2659,0.31208 -1.6182,0.40837 -2.6116,0.69666 l -0.0396,0.40044 -0.17671,1.4182 c -0.0227,0.14386 -0.064,0.6083 -0.13594,1.3933 -0.006,0.15236 -0.034,0.37665 -0.064,0.67287 0.26451,-0.10365 0.42423,-0.16822 0.49673,-0.19201 1.4415,-0.50465 3.7648,-0.86487 5.5512,-0.86487 0.68873,0 1.3939,0.0799 2.1143,0.24014 1.6023,0.36023 2.9481,1.1056 3.8934,2.1625 0.52051,0.58508 0.90509,1.25 1.1214,1.9388 0.24015,0.77709 0.36023,1.6901 0.36023,2.8036 0,0.29623 -0.006,0.59302 -0.0227,0.88924 -0.0453,0.73687 -0.10421,1.2415 -0.31264,2.611 0.1365,-0.40836 0.24071,-0.72044 0.31264,-0.92887 z m -36.776,0.10421 c -0.14386,-0.89716 -0.22429,-1.9869 -0.22429,-2.8761 0,-0.35229 0.017,-0.67287 0.0453,-0.96116 0.16029,-1.2574 0.7448,-2.7232 1.4341,-3.5807 0.38401,-0.46444 0.88867,-0.88866 1.4896,-1.2494 1.3134,-0.79295 2.7317,-1.1452 4.5577,-1.1452 0.95323,0 2.1789,0.12008 3.3326,0.32851 1.1611,0.20787 1.6261,0.32794 2.7634,0.70459 l -0.0397,-0.44065 c -0.051,-0.53637 -0.0957,-1.041 -0.15179,-1.5298 -0.0884,-0.80881 -0.12857,-1.0892 -0.24864,-1.8504 -0.14387,-0.0396 -0.25601,-0.064 -0.32851,-0.0799 -0.11215,-0.0226 -0.82466,-0.21636 -2.1466,-0.57715 -0.36022,-0.0957 -1.2415,-0.32001 -2.6513,-0.6808 -2.4672,-0.6168 -3.3083,-0.75273 -4.6382,-0.75273 -1.0733,0 -2.1064,0.19993 -3.0438,0.59244 -1.8662,0.79295 -3.0681,2.5793 -3.0681,4.5583 0,1.2172 0.29622,2.6994 0.92151,4.662 0.3523,1.0892 0.6168,1.8023 1.8419,4.9502 l 0.29678,0.75273 c -0.0725,-0.36815 -0.12007,-0.64058 -0.14443,-0.82466 z m -2.291,6.9049 c -0.21636,-0.73687 -0.59244,-1.8583 -1.1135,-3.3802 -0.39251,-1.13 -0.69666,-1.971 -0.90509,-2.5074 l -1.3616,-3.5326 c -0.49673,-1.2976 -0.88131,-2.419 -1.1373,-3.3564 -0.38458,-1.3695 -0.57716,-2.5714 -0.57716,-3.5405 0,-0.96909 0.20051,-2.1789 0.50466,-3.0523 0.47293,-1.3372 1.5542,-2.9316 2.6275,-3.8605 1.0733,-0.93737 2.892,-1.8266 4.4858,-2.1953 0.82523,-0.19201 1.7785,-0.2883 2.8438,-0.2883 0.84109,0 1.698,0.064 2.5635,0.18465 1.4098,0.19993 3.7325,0.76066 5.8474,1.3933 0.60094,0.18464 1.0014,0.29678 1.1934,0.34493 0.37665,0.0957 0.62473,0.14386 1.2976,0.27186 -0.11215,-0.57658 -0.12801,-0.78501 -0.12801,-1.1452 0,-0.128 0.006,-0.24808 0.017,-0.37665 0.064,-0.73687 0.44065,-1.4256 1.0093,-1.8583 0.26451,-0.19994 0.56866,-0.36815 0.89716,-0.51258 0.7533,-0.32058 1.3061,-0.4163 2.235,-0.4163 h 0.36079 c 1.105,0.034 1.7298,0.15179 2.5148,0.47237 0.84959,0.34436 1.3701,0.79294 1.7224,1.4658 0.21636,0.40836 0.33644,0.87337 0.33644,1.322 0,0.42423 -0.0566,0.63266 -0.28036,1.1214 0.60093,-0.0963 0.71308,-0.12007 1.634,-0.42479 0.94531,-0.30415 2.5074,-0.75273 3.3723,-0.97702 2.1149,-0.52901 4.2457,-0.84109 5.784,-0.84109 0.93681,0 1.8742,0.0957 2.8116,0.29622 1.8181,0.40044 3.3564,1.1214 4.598,2.171 0.76067,0.64852 1.4098,1.4177 1.9144,2.2826 0.76066,1.2982 1.2013,2.8999 1.2013,4.3499 0,1.1373 -0.18408,2.4032 -0.56073,3.7648 -0.52051,1.9065 -0.64059,2.2588 -2.2826,6.5684 -0.35286,0.92151 -0.74537,1.979 -1.186,3.1882 -0.65645,1.8102 -0.82467,2.2752 -1.2732,3.677 -0.99345,0.28036 -1.4018,0.33644 -2.2593,0.33644 -1.642,0 -3.2199,-0.49673 -4.4054,-1.3939 -0.32058,-0.24864 -0.6168,-0.52051 -0.8813,-0.82523 -0.40837,-0.47237 -0.52844,-0.68873 -0.72102,-1.2817 0.67288,-0.4163 0.98552,-0.56073 1.6425,-0.76859 0.48029,-0.15236 1.0008,-0.28036 1.5457,-0.39251 0.65702,-0.12857 0.92945,-0.16822 1.6505,-0.24072 -0.16821,-0.61679 -0.29678,-0.82466 -0.77708,-1.2415 -0.57715,-0.4888 -1.322,-0.76066 -2.0747,-0.76066 -0.2005,0 -0.46501,0.017 -0.80144,0.0453 0.0804,-0.2883 0.14443,-0.49616 0.16822,-0.64059 0.11214,-0.50465 0.18464,-1.1537 0.18464,-1.7541 0,-0.56073 -0.0963,-1.1214 -0.27243,-1.7145 -0.23222,-0.76916 -0.32851,-0.93738 -0.73688,-1.4177 -0.52901,0.42423 -0.66494,0.58452 -1.0654,1.3378 -0.57715,1.0733 -0.84109,2.0424 -0.84109,3.0517 0,0.24864 0.006,0.43272 0.0566,0.85694 -0.47293,-0.13593 -0.66494,-0.15972 -1.0093,-0.15972 -0.67288,0 -1.3299,0.12008 -1.8345,0.34437 -0.4163,0.18407 -0.66494,0.40043 -1.0977,0.96116 0.56922,0.16822 0.76915,0.24015 1.3701,0.52844 0.50466,0.24072 0.99345,0.49673 1.4579,0.76916 0.67287,0.38458 0.92888,0.57659 1.5219,1.1135 -0.34436,0.62473 -0.49672,0.77709 -1.2336,1.2738 -1.1854,0.79295 -2.4349,1.1855 -3.7971,1.1855 -0.70458,0 -1.4256,-0.11215 -2.1308,-0.32851 -1.4817,-0.44858 -2.235,-0.96116 -3.5886,-2.4355 l -0.45651,-0.48823 c -0.6168,0.91302 -0.91302,1.2336 -1.6578,1.8102 -1.3061,1.0014 -2.6037,1.4256 -4.3499,1.4256 -1.4579,0 -2.5793,-0.28829 -3.6124,-0.92095 -0.75329,-0.47237 -1.0178,-0.73687 -1.4743,-1.5298 0.52108,-0.60887 0.76123,-0.83316 1.2738,-1.1775 0.33644,-0.22429 0.72895,-0.44065 1.1696,-0.64115 0.60094,-0.25601 0.92888,-0.37609 1.8022,-0.6168 -0.4163,-0.5528 -0.62473,-0.72895 -1.1373,-0.98496 -0.52108,-0.25657 -1.0574,-0.38457 -1.6102,-0.38457 -0.38458,0 -0.60887,0.0396 -1.1373,0.192 0.10422,-0.42422 0.12801,-0.6168 0.12801,-0.88923 0,-0.45651 -0.10422,-1.049 -0.32058,-1.7462 -0.14386,-0.49672 -0.31208,-0.92095 -0.48823,-1.2574 -0.30472,-0.56072 -0.49672,-0.80937 -1.0654,-1.3701 -0.42479,0.53693 -0.54487,0.76122 -0.77709,1.4182 -0.25657,0.7448 -0.40043,1.5298 -0.40043,2.1625 0,0.1365 0.006,0.28037 0.0226,0.40894 0.0397,0.42422 0.0884,0.59244 0.4163,1.634 -0.34437,-0.0566 -0.50465,-0.0725 -0.69666,-0.0725 -0.69666,0 -1.4335,0.26451 -2.0107,0.71309 -0.44065,0.34436 -0.60886,0.58508 -0.89716,1.2336 0.65702,0.0226 0.89716,0.0566 1.578,0.20843 0.54486,0.11214 1.0495,0.25601 1.506,0.40837 0.71308,0.24864 1.0172,0.38457 1.7462,0.80087 -0.53637,1.0818 -0.79295,1.4579 -1.3939,2.0028 -1.0812,0.96909 -2.8756,1.5542 -4.8058,1.5542 -0.96116,0 -1.2976,-0.0566 -2.2191,-0.40044 -0.0719,-0.24864 -0.12801,-0.43272 -0.16822,-0.55279"
         id="path850"
         style="fill:#000000;fill-opacity:1" />
      <path
         d="m 362.06,173.99 c 0.31265,0.017 0.86545,0.064 1.6505,0.14387 0.85695,0.0883 1.4579,0.16028 1.8023,0.21636 l 1.634,0.28036 0.4163,0.0566 0.42479,-2.7153 c -0.82523,-0.16822 -1.1294,-0.22429 -2.107,-0.36872 -1.5298,-0.24015 -2.427,-0.32851 -3.8288,-0.37609 l -0.40836,-0.017 -0.0397,2.764 c 0.2005,0.006 0.35229,0.006 0.45651,0.017 z m -6.7287,0.36816 4.2298,-1.7382 -4.2298,-2.0906 -4.1494,2.0906 z m -10.213,0.0113 1.8345,-0.18464 c 0.4163,-0.0396 1.0172,-0.0799 1.7943,-0.12007 l 0.37608,-0.0227 -0.13594,-2.7798 c -0.91302,0.0396 -1.2659,0.0566 -1.9784,0.128 -0.49672,0.0453 -1.2098,0.1365 -2.1308,0.26451 -1.1215,0.15236 -1.3622,0.19257 -2.1308,0.36079 l 0.36022,2.5873 c 0.6808,-0.10422 0.84902,-0.12008 2.0107,-0.23222 z m -0.51259,1.9784 c -3.0438,0.40044 -4.5181,1.041 -4.5181,1.9784 0,0.57659 0.60094,1.0897 1.7224,1.4658 0.99345,0.34437 2.0186,0.6168 3.0681,0.8173 2.5312,0.50466 6.424,0.78502 10.87,0.78502 3.5722,0 6.4563,-0.19257 9.1155,-0.60887 1.2976,-0.2005 2.5714,-0.48086 3.805,-0.82523 1.2659,-0.36022 1.8985,-0.88074 1.8985,-1.5859 0,-0.70516 -0.60094,-1.2336 -1.7462,-1.5462 -1.2897,-0.35229 -2.6433,-0.59244 -4.0452,-0.71252 -2.1308,-0.19257 -6.1363,-0.33643 -9.3726,-0.33643 -4.2932,-0.006 -7.8898,0.18408 -10.798,0.56865 z m 29.839,-3.9092 -0.19201,0.79295 -0.12857,0.465 -3.7008,0.6168 3.2126,2.7714 c -0.051,0.192 -0.0804,0.34436 -0.10421,0.44065 -0.27244,1.2177 -0.32058,1.3775 -0.5528,1.9144 -0.35229,0.8088 -0.64908,1.1537 -1.4177,1.634 -0.82523,0.52051 -1.7705,0.93738 -2.8841,1.2817 -1.3537,0.40837 -2.8195,0.72102 -4.3974,0.94531 -2.7317,0.37665 -6.3441,0.6168 -9.3483,0.6168 -3.0517,0 -6.2643,-0.23222 -8.9314,-0.64909 -1.6023,-0.24808 -2.9798,-0.56072 -4.1335,-0.93681 -0.96909,-0.32057 -1.8906,-0.70515 -2.5074,-1.0574 -0.65645,-0.36872 -1.2415,-0.93737 -1.5298,-1.4981 -0.14387,-0.28829 -0.28037,-0.64058 -0.39251,-1.0574 -0.14387,-0.52051 -0.20843,-0.78501 -0.34437,-1.4981 l 3.3966,-2.8512 -3.9172,-0.75329 -0.12007,-0.38458 -0.19258,-0.91302 -0.10421,-0.36872 c 0.19257,-0.0719 0.33643,-0.13594 0.43272,-0.17615 1.2738,-0.48823 3.3881,-1.041 5.5512,-1.4335 2.355,-0.43273 5.1185,-0.7533 8.523,-0.97759 2.1308,-0.14387 3.7807,-0.20787 5.4068,-0.20787 1.258,0 2.6196,0.0396 4.0933,0.12008 3.1644,0.16821 5.1751,0.41629 8.2591,1.0252 1.3537,0.26451 2.5148,0.52844 3.4924,0.78502 1.2092,0.31265 1.6102,0.44858 2.6513,0.88923 l -0.12007,0.46444"
         id="path852"
         style="fill:#000000;fill-opacity:1" />
      <path
         d="m 414.28,107.36 -3.5241,2.7391 3.5241,2.7798 V 107.36"
         id="path854"
         style="fill:#000000;fill-opacity:1" />
      <path
         d="m 413.15,113.96 -2.9078,-3.1718 -3.1638,3.1718 h 6.0717"
         id="path856"
         style="fill:#000000;fill-opacity:1" />
      <path
         d="m 406.05,112.88 3.7648,-2.7878 -3.7648,-2.7311 v 5.5189"
         id="path858"
         style="fill:#000000;fill-opacity:1" />
      <path
         d="m 407.16,105.95 3.084,3.6685 2.9078,-3.6685 H 407.16"
         id="path860"
         style="fill:#000000;fill-opacity:1" />
      <path
         d="m 413.17,133.56 0.0396,-0.66494 c 0.16029,-2.6592 0.22429,-3.5886 0.35286,-4.9502 0.0799,-0.85751 0.16822,-1.6901 0.26394,-2.4995 0.16029,-1.2574 0.23222,-1.7383 0.465,-2.9877 -0.30471,0.0878 -0.53693,0.16029 -0.69722,0.19993 -1.0733,0.28886 -1.9467,0.40101 -3.2279,0.40101 -0.76916,0 -1.4579,-0.0396 -2.0668,-0.12064 -0.74536,-0.0957 -1.1056,-0.18408 -1.979,-0.45651 l 0.0883,0.69722 0.29623,2.1948 c 0.0566,0.43273 0.16821,1.3775 0.31264,2.8354 0.14387,1.314 0.23222,2.2112 0.25601,2.6915 l 0.12857,2.1308 0.0396,0.529 z m -2.9243,5.7273 3.3808,-4.534 h -6.7848 z m -0.84109,0.29622 -3.9409,-3.3564 v 6.168 z m 1.7943,0.034 3.805,2.8195 v -6.1357 z m 17.527,-2.9962 c 0.28037,-0.8088 0.72895,-2.0503 1.5219,-4.1573 0.99345,-2.6513 1.2659,-3.7648 1.2659,-5.1185 0,-1.1135 -0.2005,-1.8906 -0.71308,-2.6994 -1.0093,-1.634 -2.9956,-2.5793 -5.383,-2.5793 -1.2415,0 -2.6354,0.22429 -5.1745,0.82523 -0.63322,0.15179 -1.2897,0.31208 -1.9948,0.48823 -1.2653,0.31264 -1.6182,0.40893 -2.611,0.69722 l -0.0453,0.40044 -0.16822,1.4177 c -0.0227,0.14442 -0.0725,0.60886 -0.1365,1.3939 -0.017,0.15236 -0.034,0.37665 -0.064,0.67287 0.25657,-0.10421 0.42479,-0.16822 0.49672,-0.192 1.442,-0.50466 3.7569,-0.86545 5.5433,-0.86545 0.68873,0 1.4018,0.0804 2.1228,0.24015 1.6018,0.35286 2.9475,1.1056 3.8928,2.163 0.52051,0.58452 0.89716,1.2415 1.1135,1.9388 0.24808,0.77652 0.36872,1.6901 0.36872,2.8031 0,0.29679 -0.006,0.59301 -0.034,0.88923 -0.0396,0.73688 -0.10421,1.2415 -0.31264,2.6116 0.14443,-0.41687 0.24864,-0.72102 0.31264,-0.92945 z m -36.768,0.10422 c -0.14386,-0.89716 -0.22429,-1.9863 -0.22429,-2.8756 0,-0.3523 0.017,-0.67288 0.051,-0.96117 0.16028,-1.258 0.7448,-2.7317 1.4341,-3.5807 0.38458,-0.46444 0.88924,-0.88923 1.4896,-1.2494 1.314,-0.79295 2.7317,-1.1458 4.5583,-1.1458 0.94474,0 2.1783,0.12008 3.3321,0.32851 1.1617,0.20843 1.6182,0.3285 2.7634,0.70515 l -0.0397,-0.44065 c -0.051,-0.53694 -0.0963,-1.0416 -0.15236,-1.5298 -0.0884,-0.80937 -0.128,-1.0897 -0.24865,-1.8504 -0.15179,-0.0396 -0.256,-0.0646 -0.33643,-0.0804 -0.10365,-0.034 -0.81674,-0.21636 -2.1387,-0.57659 -0.36022,-0.0963 -1.2415,-0.3285 -2.6513,-0.6808 -2.4672,-0.6168 -3.3083,-0.7533 -4.6302,-0.7533 -1.0812,0 -2.1223,0.20051 -3.0517,0.59301 -1.8662,0.79295 -3.0681,2.5793 -3.0681,4.5577 0,1.2177 0.29679,2.6994 0.92151,4.662 0.3523,1.0897 0.6168,1.8022 1.8425,4.9423 l 0.29622,0.76123 c -0.0719,-0.36872 -0.12007,-0.64116 -0.14443,-0.82523 z m -2.291,6.9049 c -0.21579,-0.73688 -0.59244,-1.8583 -1.113,-3.3802 -0.40101,-1.1294 -0.69723,-1.9705 -0.90566,-2.5153 l -1.3616,-3.5246 c -0.49673,-1.2976 -0.8813,-2.4111 -1.1373,-3.3559 -0.38458,-1.3701 -0.57659,-2.5714 -0.57659,-3.5411 0,-0.96909 0.19994,-2.1783 0.50466,-3.0517 0.47236,-1.3378 1.5536,-2.9316 2.6269,-3.8611 1.0739,-0.93738 2.892,-1.826 4.4779,-2.1948 0.83316,-0.19201 1.7785,-0.28829 2.8438,-0.28829 0.84901,0 1.706,0.064 2.5714,0.18407 1.4097,0.2005 3.7325,0.7533 5.8474,1.3939 0.60094,0.18408 0.99344,0.29622 1.1934,0.34436 0.37665,0.0963 0.6168,0.14443 1.2982,0.26451 -0.11215,-0.56866 -0.1365,-0.77709 -0.1365,-1.1373 0,-0.12857 0.006,-0.25658 0.0226,-0.37665 0.064,-0.73688 0.44009,-1.4262 1.0093,-1.8583 0.26394,-0.2005 0.56072,-0.36872 0.89716,-0.51258 0.75273,-0.32058 1.3055,-0.42479 2.2344,-0.42479 l 0.35286,0.006 c 1.1135,0.034 1.7382,0.15236 2.5233,0.47294 0.84901,0.34436 1.3695,0.79294 1.7218,1.4658 0.21636,0.40837 0.33644,0.87281 0.33644,1.3214 0,0.42479 -0.0566,0.63322 -0.28037,1.1214 0.60094,-0.0957 0.71309,-0.128 1.6346,-0.42422 0.94473,-0.30472 2.4989,-0.7533 3.3723,-0.97759 2.1064,-0.52844 4.2451,-0.84902 5.7834,-0.84902 0.92888,0 1.8742,0.10422 2.8116,0.30472 1.8181,0.40043 3.3564,1.1214 4.598,2.1704 0.76123,0.64909 1.4098,1.4182 1.9144,2.2752 0.76123,1.3055 1.2019,2.9078 1.2019,4.3578 0,1.1294 -0.19257,2.4026 -0.56073,3.7648 -0.52107,1.8985 -0.64115,2.2588 -2.2831,6.5684 -0.3523,0.92096 -0.74481,1.9784 -1.1855,3.1882 -0.65701,1.8102 -0.82523,2.2746 -1.2738,3.6764 -1.0014,0.28036 -1.4097,0.33644 -2.2667,0.33644 -1.6346,0 -3.2126,-0.49673 -4.398,-1.3939 -0.32058,-0.24808 -0.6168,-0.52051 -0.8813,-0.82466 -0.40837,-0.47294 -0.52844,-0.6893 -0.72045,-1.2817 0.67287,-0.41687 0.98495,-0.56073 1.642,-0.76916 0.4803,-0.15236 1.0014,-0.28036 1.5457,-0.39251 0.65702,-0.128 0.92945,-0.16822 1.6425,-0.24015 -0.16028,-0.6168 -0.29678,-0.82523 -0.77708,-1.2415 -0.56866,-0.4888 -1.314,-0.76916 -2.0668,-0.76916 -0.2005,0 -0.46444,0.0226 -0.80088,0.0566 0.0799,-0.2883 0.13594,-0.49673 0.16822,-0.64116 0.11215,-0.50465 0.17615,-1.1532 0.17615,-1.7541 0,-0.56072 -0.0884,-1.1214 -0.2645,-1.7139 -0.24015,-0.76916 -0.32851,-0.93738 -0.73688,-1.4182 -0.52844,0.42479 -0.66494,0.58508 -1.0654,1.3457 -0.57658,1.0574 -0.84109,2.035 -0.84109,3.0444 0,0.24807 0.006,0.43215 0.0453,0.85694 -0.47293,-0.1365 -0.65701,-0.16028 -1.0014,-0.16028 -0.67287,0 -1.3299,0.12007 -1.8345,0.34436 -0.4163,0.18408 -0.66494,0.40044 -1.0971,0.96116 0.56866,0.16822 0.76066,0.24072 1.3695,0.52901 0.50466,0.24015 0.99345,0.49673 1.4579,0.76859 0.67287,0.38458 0.92945,0.57715 1.5219,1.1135 -0.34436,0.62472 -0.49672,0.77708 -1.2336,1.2738 -1.1854,0.79294 -2.4428,1.1775 -3.7965,1.1775 -0.70515,0 -1.4262,-0.10421 -2.1392,-0.32057 -1.4738,-0.44859 -2.2265,-0.96117 -3.5886,-2.4349 l -0.44858,-0.48879 c -0.6168,0.91302 -0.91302,1.2336 -1.6658,1.8102 -1.2976,1.0014 -2.6037,1.4262 -4.3499,1.4262 -1.45,0 -2.5714,-0.28829 -3.6045,-0.92151 -0.76123,-0.47237 -1.0172,-0.73688 -1.4822,-1.5298 0.52901,-0.60887 0.76916,-0.83316 1.2817,-1.1775 0.33644,-0.22429 0.72895,-0.44065 1.1696,-0.63266 0.59301,-0.2645 0.92944,-0.38457 1.7943,-0.62472 -0.40837,-0.5528 -0.6168,-0.72895 -1.1294,-0.98552 -0.52051,-0.25601 -1.0654,-0.38458 -1.6102,-0.38458 -0.38457,0 -0.60887,0.0396 -1.1373,0.19257 0.0963,-0.42479 0.12801,-0.6168 0.12801,-0.88923 0,-0.46444 -0.10422,-1.0495 -0.32001,-1.7462 -0.15236,-0.49673 -0.31265,-0.92152 -0.49673,-1.258 -0.29679,-0.56866 -0.48879,-0.80881 -1.0574,-1.3695 -0.42479,0.53693 -0.54486,0.76122 -0.77708,1.4177 -0.25658,0.73687 -0.40044,1.5298 -0.40044,2.163 0,0.13594 0.006,0.27244 0.017,0.40837 0.0453,0.42479 0.0963,0.59301 0.42479,1.634 -0.34436,-0.0566 -0.50465,-0.0719 -0.69722,-0.0719 -0.69666,0 -1.4335,0.26451 -2.0107,0.71309 -0.44008,0.34436 -0.6168,0.58451 -0.90509,1.2336 0.66494,0.0226 0.90509,0.0566 1.5865,0.20786 0.5443,0.11215 1.041,0.25658 1.5055,0.40893 0.71309,0.24808 1.0093,0.38402 1.7468,0.80088 -0.53694,1.0812 -0.80144,1.4579 -1.4018,2.0028 -1.0739,0.96909 -2.8682,1.5536 -4.7984,1.5536 -0.96116,0 -1.3055,-0.0566 -2.227,-0.40043 -0.064,-0.24808 -0.12007,-0.43273 -0.16028,-0.5528"
         id="path862"
         style="fill:#000000;fill-opacity:1" />
      <path
         d="m 416.96,150.24 c 0.31265,0.017 0.86545,0.064 1.6505,0.14443 0.86488,0.0878 1.4658,0.16028 1.8023,0.21636 l 1.634,0.28036 0.4163,0.0566 0.42479,-2.7079 c -0.82523,-0.17615 -1.1294,-0.23222 -2.107,-0.37608 -1.5298,-0.23222 -2.427,-0.32851 -3.8288,-0.37665 l -0.40836,-0.017 -0.0397,2.7634 c 0.20843,0.006 0.35229,0.006 0.45651,0.017 z m -6.7287,0.36872 4.2298,-1.7382 -4.2298,-2.0906 -4.1494,2.0906 z m -10.205,0.006 1.8266,-0.18408 c 0.4163,-0.0396 1.0172,-0.0804 1.7943,-0.12007 l 0.37665,-0.0227 -0.1365,-2.7793 c -0.91302,0.0396 -1.2653,0.064 -1.9705,0.128 -0.50466,0.0453 -1.2177,0.13594 -2.1387,0.26451 -1.1214,0.15179 -1.3537,0.192 -2.1308,0.36022 l 0.36022,2.5873 c 0.6808,-0.10422 0.85752,-0.12008 2.0186,-0.23222 z m -0.52052,1.9784 c -3.0438,0.40044 -4.5181,1.0416 -4.5181,1.979 0,0.57658 0.60094,1.0892 1.7224,1.4658 0.99345,0.34437 2.0186,0.6168 3.0681,0.81674 2.5391,0.50465 6.424,0.78501 10.87,0.78501 3.5722,0 6.4563,-0.192 9.1076,-0.60886 1.3055,-0.19994 2.5714,-0.4803 3.8129,-0.82467 1.2659,-0.36079 1.8906,-0.8813 1.8906,-1.5865 0,-0.70459 -0.59301,-1.2336 -1.7382,-1.5457 -1.2897,-0.3523 -2.6433,-0.59302 -4.0452,-0.71309 -2.1308,-0.19201 -6.1283,-0.33644 -9.372,-0.33644 -4.2938,-0.006 -7.8904,0.18408 -10.798,0.56866 z m 29.839,-3.9087 -0.19201,0.79295 -0.12857,0.46444 -3.7008,0.6168 3.2126,2.7713 c -0.0453,0.19258 -0.0804,0.34494 -0.10422,0.44065 -0.27243,1.2177 -0.31265,1.378 -0.5528,1.9144 -0.35229,0.80937 -0.64908,1.1537 -1.4177,1.6346 -0.82523,0.52052 -1.7785,0.93681 -2.892,1.2812 -1.3457,0.40893 -2.8116,0.72101 -4.3895,0.9453 -2.7317,0.37665 -6.3441,0.6168 -9.3483,0.6168 -3.0517,0 -6.2643,-0.23222 -8.9314,-0.64851 -1.6023,-0.24865 -2.9798,-0.56073 -4.1256,-0.93738 -0.97703,-0.32058 -1.8985,-0.70516 -2.5153,-1.0574 -0.65645,-0.36815 -1.2336,-0.93738 -1.5298,-1.4981 -0.14387,-0.28829 -0.27244,-0.64059 -0.39251,-1.0569 -0.14386,-0.52107 -0.20843,-0.78501 -0.34437,-1.4981 l 3.3966,-2.8518 -3.9172,-0.75273 -0.12007,-0.38458 -0.19258,-0.91359 -0.10421,-0.36815 c 0.2005,-0.0719 0.33643,-0.1365 0.44065,-0.17615 1.2659,-0.48879 3.3802,-1.0416 5.5433,-1.4341 2.355,-0.43272 5.1105,-0.75273 8.523,-0.97702 2.1308,-0.14443 3.7806,-0.20843 5.4068,-0.20843 1.258,0 2.6196,0.0396 4.0933,0.12007 3.1644,0.16822 5.183,0.41687 8.2591,1.0252 1.3537,0.2645 2.5233,0.52901 3.5003,0.78501 1.1934,0.32058 1.6023,0.44859 2.6433,0.88924 l -0.12007,0.465"
         id="path864"
         style="fill:#000000;fill-opacity:1" />
      <path
         d="m 219.94,356.67 c 3.2199,-0.44053 6.232,-1.0093 9.0198,-1.6982 7.2413,-1.7943 14.322,-4.678 22.18,-9.0437 4.2615,-2.3711 8.395,-4.9664 12.376,-7.7941 7.994,-5.6633 15.917,-12.536 20.058,-17.399 1.7462,-2.0507 3.4363,-4.3256 5.0545,-6.8248 3.6045,-5.5672 5.0545,-9.4523 5.0545,-13.554 0,-1.9946 -0.45651,-3.9011 -1.3378,-5.5432 -1.8504,-3.4685 -5.4152,-5.3749 -10.029,-5.3749 -2.7232,0 -5.4147,0.42456 -7.9861,1.2576 -8.7235,2.8357 -17.343,8.475 -26.691,17.471 -4.5498,4.3816 -9.1319,9.4442 -13.722,15.156 -8.0903,10.069 -14.971,20.523 -21.267,32.314 l -0.96909,1.7943 c 3.6606,-0.19224 5.0941,-0.32845 8.2585,-0.76101 z m -2.4916,35.286 c 0,-3.0119 1.3542,-6.6646 3.7489,-10.149 1.0416,-1.506 2.163,-2.8277 3.3485,-3.9411 4.1012,-3.829 9.909,-6.0638 15.764,-6.0638 5.5433,0 11.471,2.0266 15.588,5.3269 1.8102,1.4498 3.4924,3.3163 4.9984,5.5432 3.1401,4.63 4.662,9.5243 4.662,14.987 0,3.5566 -0.5528,7.1933 -1.6499,10.79 -2.2429,7.3535 -6.2161,13.545 -12.32,19.177 -3.3882,3.124 -7.0091,5.6553 -10.75,7.5137 -5.7755,2.8757 -12.176,4.3656 -18.768,4.3656 -9.0758,0 -16.71,-2.6755 -23.599,-8.2587 -3.0121,-2.4431 -5.6713,-5.3028 -7.8824,-8.499 -5.6713,-8.1786 -8.8991,-19.313 -8.8991,-30.728 0,-5.2548 0.72101,-11.182 2.1466,-17.679 1.322,-6.0238 1.9948,-8.2827 4.1652,-13.922 -0.73687,-0.0721 -1.2897,-0.13621 -1.6578,-0.17626 -9.7968,-1.0974 -19.321,-4.1173 -27.251,-8.6512 -13.818,-7.8903 -21.532,-20.186 -21.532,-34.316 0,-4.9984 1.049,-10.013 2.9956,-14.331 1.9144,-4.2455 4.7984,-8.1465 8.4511,-11.439 6.9049,-6.2161 15.956,-9.6686 25.361,-9.6686 3.5966,0 7.2815,0.51269 10.966,1.514 6.6806,1.8184 12.248,4.8943 16.886,9.3401 3.2839,3.148 5.2867,6.144 6.6806,10.005 0.64059,1.7783 0.8173,2.5714 1.0331,4.6861 -2.355,-3.0119 -3.1876,-3.9651 -4.8058,-5.5191 -1.7382,-1.6742 -3.7648,-3.2202 -6.04,-4.614 -6.0236,-3.6768 -12.68,-5.5993 -19.449,-5.5993 -17.102,0 -29.895,12 -29.895,28.028 0,4.4297 0.97703,8.8355 2.8597,12.913 3.2924,7.0972 8.7315,12.552 16.91,16.934 4.982,2.6675 8.3786,3.853 14.811,5.1747 2.7793,0.56871 3.5246,0.68085 5.7676,0.8651 3.1559,-7.0251 4.6297,-9.6525 9.2197,-16.413 7.3376,-10.822 17.014,-21.58 26.691,-29.678 8.5791,-7.1773 18.608,-13.554 28.781,-18.288 9.9888,-4.638 18.512,-6.8969 26.05,-6.8969 5.8072,0 10.542,1.6342 13.73,4.7342 3.0517,2.9638 4.918,7.762 4.918,12.632 0,3.3324 -0.97702,8.0024 -2.4032,11.415 -1.762,4.2455 -4.1171,8.3468 -7.0006,12.224 -5.5195,7.4336 -12.096,13.425 -20.971,19.129 -8.988,5.7755 -18.633,10.157 -28.637,13.009 -3.3644,0.96926 -7.1932,1.8664 -11.463,2.6915 -6.8165,1.3217 -12.696,2.0987 -18.608,2.4672 l -1.2019,0.0721 -0.91303,1.9705 c -2.2429,4.8543 -3.8611,8.523 -4.8302,11.014 -4.0774,10.405 -6.2881,20.939 -6.2881,29.935 0,7.8662 2.5153,15.332 6.8244,20.266 4.59,5.2548 11.616,8.3388 18.993,8.3388 4.9582,0 9.5646,-1.3217 14.331,-4.0933 3.4765,-2.0346 6.5764,-4.5739 9.1716,-7.5218 5.5914,-6.3682 8.7717,-14.571 8.7717,-22.653 0,-5.5352 -1.6584,-10.061 -4.9265,-13.449 -3.2284,-3.3403 -8.0586,-5.359 -12.849,-5.359 -4.7101,0 -10.021,1.9546 -13.794,5.0866 -2.9078,2.4031 -4.0293,3.893 -6.0638,8.0584 -0.12064,-1.0174 -0.17671,-1.7863 -0.17671,-2.299"
         id="path866"
         style="fill:#000000;fill-opacity:1" />
      <path
         d="m 344.24,373.77 c 0,-3.7008 -0.46444,-6.1039 -1.634,-8.499 -1.6182,-3.2842 -5.0142,-5.3989 -8.7071,-5.3989 -4.6699,0 -9.7968,2.5553 -15.324,7.6418 -5.4792,5.0465 -10.718,11.511 -15.949,19.69 -5.319,8.3147 -9.0594,15.925 -11.238,22.821 -1.1214,3.5886 -1.8906,8.0665 -1.8906,11.102 0,4.1814 1.0172,7.2414 3.2522,9.7727 2.299,2.6114 5.1026,3.8049 8.9716,3.8049 2.0345,0 3.8452,-0.29634 5.3428,-0.87309 5.0947,-1.9385 11.407,-7.4497 17.551,-15.3 2.956,-3.7889 6.0162,-8.3628 9.1398,-13.682 6.6086,-11.239 9.5964,-19.201 10.325,-27.5 0.10422,-1.1936 0.16029,-2.3871 0.16029,-3.5807 z m 6.3441,18.632 c -2.0424,8.1225 -6.4399,17.687 -11.086,24.135 -4.5742,6.3442 -11.079,12.496 -17.767,16.806 -6.6086,4.2535 -12.937,6.3282 -19.329,6.3282 -6.6885,0 -11.927,-2.1067 -16.533,-6.6726 -2.2429,-2.2269 -4.1012,-4.8222 -5.4951,-7.6899 -2.2186,-4.5739 -3.4521,-10.349 -3.4521,-16.213 0,-4.5419 0.7448,-9.244 2.2429,-14.05 2.5074,-8.0504 7.1133,-16.181 12.945,-22.846 5.5591,-6.3683 12.135,-11.319 19.265,-14.515 5.6633,-2.5473 11.447,-3.877 16.822,-3.877 3.9172,0 7.3217,0.67287 10.662,2.1228 3.1084,1.3458 5.8157,3.3644 7.8904,5.8876 3.5649,4.3496 5.4951,10.542 5.4951,17.655 0,4.2375 -0.56073,8.5791 -1.6584,12.929"
         id="path868"
         style="fill:#000000;fill-opacity:1" />
      <path
         d="m 619.54,361.26 c -4.2378,6.8088 -7.3699,11.391 -12.793,18.76 l -10.718,14.563 c -5.0941,6.921 -8.0824,12.152 -9.6604,16.934 -0.72895,2.1948 -1.2257,5.0145 -1.2257,6.9851 0,1.7462 0.33644,3.4524 0.97759,5.0145 1.6658,4.0292 5.6792,6.6486 10.197,6.6486 2.9237,0 5.8395,-0.92118 8.3627,-2.6594 5.8876,-4.0452 11.182,-11.279 14.883,-20.354 3.3406,-8.1786 5.2391,-17.903 5.2391,-26.819 0,-3.6047 -0.2803,-7.6259 -0.8733,-12.344 -0.4005,-3.1882 -0.6327,-5.1426 -0.6967,-5.8636 -0.1206,-1.506 -0.1926,-3.2041 -0.1926,-4.63 0,-0.74497 0.023,-1.2576 0.1201,-2.4431 -1.2817,2.4031 -1.7462,3.2121 -3.6203,6.208 z m -132.17,38.722 -4.0933,7.4656 c -3.2364,5.9117 -5.1349,9.9008 -6.5769,13.85 -1.0093,2.7476 -1.5938,5.3509 -1.5938,7.0892 0,0.80105 0.0963,1.562 0.28829,2.275 0.56866,2.1548 2.6433,3.6047 5.1508,3.6047 2.8597,0 6.5282,-1.522 10.598,-4.3977 6.1918,-4.3657 11.495,-9.3882 18.904,-17.887 6.8652,-7.8902 13.225,-16.013 20.298,-25.954 7.2254,-10.133 14.099,-20.635 18.664,-28.517 l 6.4563,-11.134 1.7224,-2.9559 h -38.939 z m -85.199,-42.175 -27.876,49.76 c -5.4311,9.7086 -6.168,11.102 -7.4412,14.122 -0.84109,2.0026 -1.4579,4.7181 -1.4579,6.4484 0,1.0974 0.18408,2.0987 0.5443,2.9398 0.76123,1.8024 2.8438,3.044 5.0788,3.044 3.3162,0 8.1305,-2.5954 13.626,-7.3535 8.0342,-6.953 15.348,-15.011 22.701,-25.016 5.4311,-7.4016 13.898,-20.402 20.875,-32.066 l 6.0881,-10.173 1.0569,-1.7062 h 18.953 l -29.67,54.294 c -1.0812,1.9706 -2.0747,3.9491 -2.9877,5.9197 -2.0265,4.3897 -2.8597,7.2253 -2.8597,9.7486 0,1.1535 0.29622,2.307 0.86488,3.3644 0.98552,1.8184 2.6275,2.7315 4.9106,2.7315 1.2013,0 2.3313,-0.19223 3.3485,-0.56871 4.2372,-1.57 9.508,-5.383 16.269,-11.775 7.8179,-7.4096 15.853,-16.774 24.295,-28.349 7.1694,-9.8127 15.364,-22.293 19.697,-29.967 l 5.6633,-10.053 5.4951,-9.7326 h -24.303 l 3.2601,-5.9196 h 24.175 l 19.001,-34.869 19.225,-0.0238 -19.024,34.893 h 38.762 l 19.104,-34.893 h 18.576 l -19.169,34.893 h 31.521 l -3.5484,5.9196 h -31.257 l -30.728,55.896 c -3.8769,7.0411 -7.0969,13.738 -9.0192,18.752 -0.98552,2.5714 -1.7065,5.9036 -1.7065,7.9062 0,4.8303 2.8036,8.0425 7.0334,8.0425 1.6658,0 3.2998,-0.31242 4.7979,-0.92124 6.7531,-2.6995 14.859,-8.7393 24.672,-18.384 10.878,-10.678 22.044,-24.199 34.605,-41.894 9.7566,-13.746 14.964,-22.061 23.807,-38.049 l 0.6406,-1.1535 c 1.2098,0.46461 1.6821,0.72096 2.6597,1.4499 1.5457,1.1455 2.0266,2.0026 2.0266,3.5886 0,0.56871 -0.08,1.1374 -0.2487,1.7062 -0.3761,1.2576 -0.8807,2.0426 -2.1466,3.3563 -2.3228,2.3951 -2.5873,2.6915 -3.1803,3.6928 -0.8971,1.514 -1.4658,3.7729 -1.4658,5.8316 l 0.017,0.55269 c 0.2243,4.2455 1.9388,12.408 3.6929,17.623 l 3.5727,10.598 c 1.7621,5.2308 2.8677,12.728 2.8677,19.489 0,8.8434 -2.1387,15.804 -6.9049,22.429 -4.5181,6.2801 -10.501,10.854 -17.431,13.305 -3.5966,1.2816 -7.7782,2.0106 -11.511,2.0106 -7.0334,0 -12.6,-2.1067 -16.309,-6.176 -3.4125,-3.7328 -5.3988,-9.236 -5.3988,-14.947 0,-1.2176 0.0878,-2.363 0.27243,-3.4364 0.30415,-1.7783 0.55223,-2.5473 1.4256,-4.3817 l -1.0093,1.1054 -3.0036,3.036 -3.9251,3.9651 c -4.5102,4.5739 -8.2427,8.0024 -11.599,10.67 -2.956,2.347 -5.976,4.3816 -9.052,6.0878 -5.2306,2.9158 -9.9566,4.3496 -14.363,4.3496 -4.4937,0 -8.3707,-1.5861 -11.215,-4.5659 -1.1135,-1.1695 -2.0424,-2.5473 -2.7634,-4.0693 -1.2976,-2.7636 -1.8985,-5.9437 -1.8985,-9.997 0,-3.3644 0.49673,-7.1212 1.386,-10.534 0.41629,-1.6181 1.1452,-3.853 2.1625,-6.7047 1.5304,-4.2455 1.8906,-5.1426 3.1321,-7.762 l -0.73687,1.0093 -2.7878,3.8209 c -0.84109,1.1615 -2.1387,2.8517 -3.8928,5.0786 -7.5137,9.5484 -10.998,13.505 -16.533,18.8 -3.5088,3.3563 -7.0249,6.2881 -10.526,8.7793 -6.0394,4.2936 -11.366,6.4083 -16.149,6.4083 -4.2853,0 -7.9861,-1.9305 -10.614,-5.5512 -2.483,-3.4044 -3.5966,-7.2253 -3.5966,-12.336 0,-2.8276 0.44065,-6.2881 1.1532,-9.1558 0.64908,-2.5874 1.4902,-5.3429 2.5153,-8.2507 1.0977,-3.108 1.4341,-3.917 2.6354,-6.216 -0.36023,0.62479 -0.59244,1.0173 -0.71252,1.1855 -0.0804,0.11215 -0.86544,1.0974 -2.3471,2.9558 l -3.869,4.8543 c -1.7462,2.1948 -4.1092,4.9824 -7.0974,8.3628 -7.1529,8.0905 -11.19,12.056 -16.83,16.533 -6.4081,5.0785 -12.015,7.5698 -17.046,7.5698 -4.2932,0 -7.866,-1.7302 -10.437,-5.0545 -2.6116,-3.3884 -4.0214,-7.786 -4.0214,-12.56 0,-4.4617 1.0574,-9.6204 2.9639,-14.451 l 1.8022,-4.5659 0.51259,-1.4018 c -2.0503,2.8597 -2.6513,3.6287 -6.5044,8.3788 -6.3521,7.8341 -8.7473,10.558 -12.936,14.715 -5.191,5.1507 -10.654,9.6285 -14.643,12.024 -2.9962,1.8023 -6.5769,2.8196 -9.9334,2.8196 -4.9344,0 -9.5964,-2.1067 -12.512,-5.6553 -2.5793,-3.124 -3.6447,-6.5445 -3.6447,-11.711 0,-3.6046 0.66494,-7.762 1.7943,-11.303 0.65701,-2.0667 1.7224,-4.614 3.1803,-7.6179 2.1149,-4.3656 4.2213,-8.3788 7.4174,-14.146 l 17.399,-31.401 h 18.608"
         id="path870"
         style="fill:#000000;fill-opacity:1" />
    </g>
  </g>
</svg>
